<?xml version="1.0" encoding="UTF-8"?>
<svg id="Capa_1" xmlns="http://www.w3.org/2000/svg" viewBox="0 0 60 60">
  <defs>
    <style>
      .cls-1 {
        fill: #98c240;
      }
    </style>
  </defs>
  <path class="cls-1" d="M57.08,52.78l-9.34-9.38c-.91-.92-2.27-1.16-3.36-.7l-1.79-1.76c7.84-8.76,7.57-22.24-.85-30.64C33.02,1.57,18.83,1.57,10.11,10.3c-8.66,8.66-8.66,22.86,0,31.57,8.42,8.39,21.96,8.66,30.72.83l1.76,1.78c-.45,1.15-.23,2.45.68,3.38l9.33,9.33c1.23,1.22,3.24,1.22,4.48,0,1.23-1.23,1.23-3.19,0-4.42h0ZM39.07,39.19h0c-7.27,7.22-19.01,7.22-26.3,0-7.21-7.21-7.21-18.99,0-26.27,7.28-7.23,19.03-7.23,26.3,0,7.23,7.28,7.23,19.06,0,26.27h0Z"/>
</svg>