<?xml version="1.0" encoding="UTF-8"?>
<svg id="Capa_1" xmlns="http://www.w3.org/2000/svg" viewBox="0 0 60 60">
  <defs>
    <style>
      .cls-1 {
        fill: #fff;
      }
    </style>
  </defs>
  <path class="cls-1" d="M.8,21.24c.03-.13.01-.27.02-.4,0-.12.01-.25.02-.37.01-.11.07-.2.16-.27.29-.23.55-.48.79-.76.15-.16.34-.27.51-.4.21-.17.37-.38.53-.59.04-.05.04-.11,0-.16,0-.01-.02-.03-.03-.04-.05-.13-.02-.23.11-.28.05-.02.11-.03.17-.04.08-.01.14-.05.19-.11.04-.05.08-.09.11-.14.16-.24.24-.25-.12-.37-.4-.13-.8-.29-1.15-.54-.11-.08-.23-.13-.35-.19-.13-.07-.26-.14-.38-.23-.46-.34-.36-.84-.07-1.12.14-.14.32-.23.51-.31.39-.15.8-.23,1.21-.3.23-.04.46-.06.7-.06.03,0,.07,0,.1,0,.19-.03.38-.03.57,0,.12.02.21-.02.28-.11.13-.16.3-.27.45-.39.15-.13.3-.26.44-.41.42-.45.93-.78,1.5-1,.14-.05.22-.12.26-.27.03-.14.12-.26.2-.37.19-.26.45-.31.72-.13.13.09.25.19.37.29.07.06.15.1.24.12.15.03.31.07.46.12.17.05.35.06.52.05.27-.02.55-.06.81-.16.23-.09.46-.06.69-.06.03,0,.07,0,.1.02.13.09.25.05.38,0,.17-.07.34-.13.51-.2.33-.14.66-.27,1.01-.36.11-.03.15-.07.11-.17,0,0,0-.02,0-.02-.02-.05-.03-.1.02-.14.05-.04.11-.03.16,0,.02.01.05.03.06.05.07.21.26.2.43.23.04,0,.08,0,.12,0,.15.01.24.12.21.28,0,.05-.03.1-.04.14-.23.59-.61,1.07-1.07,1.49-.17.16-.36.3-.54.44-.04.04-.09.08-.12.12-.07.09-.04.21.07.25.3.11.57.28.89.31.06,0,.12.02.17.04.09.04.17.05.27.04.13-.01.27.02.39.07.1.04.19.05.29.03.17-.04.35,0,.52-.08.11-.04.22-.08.33-.12.29-.09.59-.19.88-.29.42-.14.79-.36,1.1-.67.14-.14.29-.27.45-.39.16-.12.32-.25.44-.4.15-.18.33-.31.5-.45.23-.2.47-.39.71-.59.08-.07.18-.12.29-.14.13-.03.26-.06.39-.1.23-.06.44-.19.67-.28.25-.1.48-.22.73-.33.14-.06.28-.14.42-.22.24-.14.49-.25.76-.3.5-.11,1-.16,1.51-.09.31.04.6.12.89.23.31.11.63.23.94.34.49.19.91.48,1.24.89.34.42.62.87.78,1.39.07.23.11.47.03.71-.03.1,0,.2,0,.3,0,.22.02.43-.05.64-.05.18-.11.35-.17.52-.03.09-.11.12-.16.19-.03.04-.02.08.03.1.06.02.13.03.19.05.06.02.12.03.16.07.14.13.33.19.5.28.09.04.18.08.27.13.09.05.18.07.28.09.14.03.28.06.41.11.28.12.58.16.87.18.28.03.56.08.84.11.07,0,.13.02.2.03.41.02.81.04,1.22.06.32.01.63.06.84.05.61,0,1.1-.04,1.59-.16.23-.06.46-.1.68-.14.06-.01.12-.02.17-.04.17-.09.35-.1.53-.13.35-.06.7-.14,1.05-.22.68-.16,1.36-.3,2.05-.45.15-.03.29-.06.44-.09.35-.08.7-.16,1.05-.24.6-.13,1.17-.32,1.75-.51.7-.23,1.4-.45,2.09-.67.3-.1.61-.12.93-.12.4,0,.8.04,1.2.02.28-.01.54.05.8.16.32.12.64.27.98.35.28.07.55.18.84.25.24.06.47.11.72.09.31-.02.6.04.88.15.2.08.4.11.61.1.42-.02.79.1,1.11.36.13.11.27.16.43.18.27.03.51.13.73.3.17.14.36.27.51.44.09.09.2.15.31.21.26.13.5.31.65.56.16.27.39.48.59.71.03.04.06.07.09.11,2.01,2.27,1.55,10.99,1.61,12.84.05,1.62.44,3.9.55,5.52.05.74.46,1.71.44,2.55.09.45.07.9-.09,1.37,0,.03-.03.04-.05.04-.03.22-.08.44-.15.66-.03.09-.16-.03-.17-.08-.03-.19-.06-.39-.09-.58-.05.13-.1.25-.18.38-.05.08-.16-.01-.19-.07-.32-.56-.39-1.29-.35-2.03-.14-1.09.39-2.24.33-3.33-.07-1.14-.53-2.94-.53-4.08,0-.53-.04-2.34-.1-4.34-.25,1.2-.56,2.25-.71,2.87-.28,1.16-1.63,4.01-1.09,5.57.01.11.04.21.09.3.01.02.02.04.03.06.51,1.74,1.51,6.41,1.83,7.9.03.16.05.31.1.47.02.07.04.15.04.22.02.27.09,1.36.18,1.61.07.2.12.41.16.63.04.21.07.43.13.63.02.06.02.11.03.17,0,.03,0,.07.02.1.02.07.09.29.1.35,0,0,0,.02,0,.02.08.26.18.67.19.91.02.41-.15.7-.57.82-.66.19-.69.25-.65.94.03.59-.15.84-.74.88-.68.05-1.37.07-2.05.07-.2,0-.54-.08-.58-.2-.06-.18.03-.48.16-.64.31-.37.65-.75,1.05-1.02.65-.43.94-.98.94-1.73-.02-.03-.04-.05-.05-.07-.11-.14-.17-.31-.19-.48-.02-.15-.07-.27-.17-.38-.08-.09-.12-.2-.15-.31-.11-.46-.27-1.73-.46-2.15-.15-.34-.31-.66-.49-.98-.18-.32-.38-.63-.6-.92-.34-.44-.6-.92-.75-1.46-.02-.06-.04-.13-.06-.19-.02-.05-.05-.11-.08-.15-.05-.08-.13-.15-.23-.13-.11.02-.21.08-.24.19-.09.31-.22.61-.28.93-.02.07-.02.15-.03.22-.01.17-.04.33-.08.49-.08.37-.17.75-.23,1.12-.04.22-.07.44-.14.66-.03.09-.03.2-.04.3,0,.18-.04,1.2-.09,1.37-.07.28-.11.57-.17.86-.01.06-.01.13-.04.17-.12.16-.08.84-.08.84.08.26.2.71.21.98.02.41-.15.7-.57.82-.66.19-.69.25-.65.94.03.59-.15.84-.74.88-.68.05-1.37.07-2.05.07-.2,0-.54-.08-.58-.2-.06-.18.03-.48.16-.64.31-.37.65-.75,1.05-1.02.61-.4.9-.91.94-1.58,0,0-.01-.02-.02-.03,0,0,0,0,0-.01-.04-.06-.02-.46-.04-.58-.01-.08,0-.17,0-.25,0-.16.02-.33-.07-.49-.05-.09-.03-.2-.02-.3.04-.22.02-1.26,0-1.48-.02-.22-.01-.45-.01-.67,0-.14-.03-.28-.04-.42-.04-.44-.16-.87-.22-1.3-.04-.29-.08-.58-.14-.86-.04-.16-.03-.33-.03-.5,0-.28-.1-.54-.13-.81,0-.05-.03-.09-.06-.14-.04-.08-.07-.17-.08-.26,0-.07-.02-.15-.05-.22-.17-.41-.27-.84-.39-1.26-.09-.32-.14-.65-.2-.98-.03-.16-.06-.33-.08-.49-.02-.1-.06-.16-.17-.18-.22-.06-.43-.13-.64-.2-.32-.12-.54-.36-.67-.67-.17-.37-.25-.75-.24-1.16.01-.33.02-.65.13-.96.03-.07.03-.15.02-.22-.01-.1-.11-.16-.2-.11-.06.03-.12.07-.17.1-.17.12-.33.25-.5.38-.06.05-.12.09-.18.13-.42.28-.85.56-1.27.84-.3.2-.6.39-.89.6-.38.26-.69.6-.99.95-.21.24-.39.5-.59.75-.52.67-1.08,1.29-1.74,1.82-.08.07-.16.14-.24.22-.2.21-.42.37-.64.55-.06.05-.12.08-.19.13-.06.04-.13.05-.19.02-.11-.05-.22-.05-.34-.05-.19,0-.32-.08-.38-.26-.02-.07-.03-.15-.04-.22,0-.12,0-.23,0-.35.01-.15-.04-.27-.12-.39-.13-.22-.28-.43-.44-.64-.11-.14-.18-.16-.34-.11-.02,0-.05.02-.07.03-.27.1-.53.06-.75-.12-.09-.07-.18-.15-.26-.24-.19-.21-.4-.4-.62-.58-.21-.17-.42-.36-.62-.54-.47-.42-1.02-.65-1.63-.77-.22-.04-.44-.07-.67-.06-.12,0-.23,0-.35-.02-.17-.02-.33-.03-.5,0-.17.02-.35.03-.52.03-.43.01-.84.1-1.24.25-.48.17-.96.33-1.44.5-.62.22-1.24.44-1.84.71-.32.14-.65.25-.99.35-.13.04-.25.08-.38.12-.1.04-.16.12-.18.22-.04.16-.07.33-.12.48-.1.34-.18.69-.28,1.03-.07.23-.13.46-.22.69-.04.09-.05.19-.05.29,0,.25-.03.5-.06.75-.03.22-.11.43-.19.65-.12.34-.24.67-.37,1.01-.01.04-.02.08-.03.12-.02.25-.05.5-.06.75,0,.25-.05.5-.13.74-.06.21-.11,2.92-.13,3.14-.02.18-.09.36-.09.54,0,.04-.04.07-.07.1-.13.18-.22.37-.17.61.01.06,0,.12-.03.17.03.13.06.27.08.4.05.24.04.41-.19.52-.18.09-.21.23-.14.41.04.1.06.21.08.32.09.45-.02.62-.47.67-.48.05-.96.07-1.43.08-.08,0-.15,0-.2-.03-.28.02-.56.03-.83.03-.36,0-.49-.2-.3-.51.18-.29.45-.53.67-.79.07-.08.16-.17.16-.26,0-.25.29-1.41.32-1.51.07-.27.48-3.25.53-3.52.04-.26.01-.52,0-.77,0-.02,0-.03,0-.05-.08-.2-.09-.4-.09-.61,0-.09-.03-.18-.07-.26-.1-.24-.21-.47-.34-.7-.17-.29-.27-.61-.25-.95.02-.24.02-.48,0-.72-.01-.2-.03-.4-.06-.6-.02-.15-.06-.19-.21-.19-.1,0-.2,0-.3.02-.17.02-.35.02-.52,0-.16-.03-.31-.04-.47-.07-.16-.03-.32-.08-.47-.15-.23-.11-.45-.21-.69-.28-.17-.05-.32-.16-.41-.31-.08-.14-.19-.2-.34-.22-.02,0-.05-.01-.07-.01-.32-.01-.55-.18-.74-.41-.09-.12-.2-.17-.34-.15-.3.03-.58-.06-.86-.11-.17-.03-.31-.15-.46-.25-.04-.03-.06-.08-.09-.12-.02-.04-.03-.08-.05-.11-.06-.16-.15-.29-.33-.34-.05-.01-.09-.05-.13-.07-.1-.07-.2-.11-.32-.13-.18-.03-.35-.1-.53-.15-.06-.02-.12-.05-.18-.09-.08-.05-.15-.11-.16-.21-.01-.1-.06-.19-.14-.26-.38-.32-.55-.77-.72-1.21-.06-.16-.12-.31-.22-.44-.06-.08-.1-.17-.13-.27-.14-.38-.24-.76-.23-1.17,0-.17-.02-.33-.07-.49-.01-.05-.02-.1-.03-.15,0-.39-.14-.75-.25-1.11-.04-.13-.1-.26-.16-.39-.08-.17-.16-.35-.22-.53-.1-.27-.23-.51-.43-.73-.08-.09-.14-.18-.21-.28-.03-.04-.07-.04-.11-.03-.02,0-.03,0-.05.02-.27.14-.54.13-.83.06-.1-.02-.2-.02-.29-.06-.36-.13-.66-.34-.84-.7-.08-.15-.19-.29-.19-.48,0-.02,0-.04-.02-.05-.16-.11-.21-.35-.43-.39-.08-.01-.15-.06-.18-.12-.06-.11-.15-.2-.24-.29-.1-.1-.18-.22-.24-.35-.09-.2-.22-.37-.34-.55-.06-.08-.1-.17-.13-.27-.06-.16-.06-.32.02-.46.08-.14.07-.27.02-.41-.03-.07-.05-.14-.07-.21-.05-.16-.08-.32-.08-.49,0-.23-.04-.46-.15-.67-.03-.06-.05-.12-.07-.19-.14-.4-.36-.77-.52-1.16-.04-.1-.07-.1-.18-.08-.21.05-.42.1-.63.15-.12.03-.24.04-.37.02-.18-.03-.36-.07-.54-.12-.11-.03-.21-.05-.32-.03-.06.01-.12,0-.17,0-.06,0-.13-.02-.17,0-.2.11-.41,0-.61.01-.14,0-.26-.06-.35-.17-.1-.12-.23-.19-.38-.23-.18-.05-.3-.17-.37-.34-.11-.24-.15-.49-.1-.75Z"/>
</svg>