<?xml version="1.0" encoding="UTF-8"?>
<svg id="Capa_1" xmlns="http://www.w3.org/2000/svg" viewBox="0 0 60 60">
  <defs>
    <style>
      .cls-1 {
        fill: #fff;
      }
    </style>
  </defs>
  <path class="cls-1" d="M57.11,21.95s-.12-.4-.68-.58c0,0-.62-.46-1.12-1.23l-1.23-1.57-.64-.96,1.26-.55s.59-.49-.15-.9c0,0-1.51-.64-2.11-.67h-.54s-.96-.79-2.12-1.15c0,0-.79-.6-1.3-.41,0,0-.43-.3-.99,0,0,0-1.08-.41-1.17.03,0,0,.59,1.01.93,1.11l-.07.14-.28.35s-.86.49-1.5.97l-.58.53s-.32.19-.52.43l-.6.46s-.89.54-.96.61c0,0-.54.18-.62.3,0,0-.2.02-.52.24l-.25-.11s-.16-.11-.28-.11-.44-.11-.44-.11c0,0-4.84-3.16-6.7-.05,0,0-.14.5-.22.78,0,0-.13.24-.13.45l-.35.48s-2.12,1.49-3.78,1.15l-4.37-.19-7.3-1.39s-2.69-1.49-6.96-.17c0,0-.82-.12-1.66.2,0,0-.83.14-1.1.48l-.64.3s-.4.14-1.18,1.1c0,0-.74,1.18-.98,1.95,0,0-.99,3.1-.8,6.96,0,0-.06,4.03-.4,4.69l-.54,3.94-.82,1.94.3-.4-.05.93s.27.72,1.01.35c0,0,.37-.37.58-1.5,0,0-.19-1.1-.38-1.26,0,0,1.2-8.8,1.22-9.07l.13.67s.38,3.07.94,4.29l.02.11s.22,1.36-.27,2.94l-1.14,2.32-.46,1.95s-.03,1.47-.06,1.63c-.03.16-.03.27-.03.27l-.62,3.65s-.26.79-.27,1.19c-.02.41.15.71.58.83.67.19.7.25.66.95-.04.6.15.85.75.89.69.05,1.39.07,2.08.07.21,0,.54-.08.59-.21.06-.18-.03-.49-.16-.65-.32-.38-.66-.77-1.07-1.03-.68-.45-.97-1.03-.96-1.82,0-.07,0-.14,0-.21h0c.06-.59.26-1.42.79-2.51,1.17-2.4,1.12-2.35,1.12-2.35l.64-.93,2.21-4.29.45,1.44s.18,2.93-.11,3.6c0,0-.21.26.16.56,0,0,.06.56.67,1.09,0,0,.59,1.5,1.17,2.21l.43.9h0c.25.54.43,1.12.48,1.75.03.34.26.58.66.6.41.02.56.24.47.65-.1.48.08.8.55.83.85.07,1.71.07,2.56.05.39-.01.52-.28.3-.61-.27-.4-.61-.74-.91-1.12-.48-.59-1.01-1.16-1.44-1.79-.36-.66-.73-1.5-.81-2.35l-.38-2.66s.45-.42.34-5.33c0,0,.06-.06.1-.54,0,0,.29.06.24-.59l.21-.24.58-.11s1.01.9,3.2,1.57l1.79.94s1.15,1.41,2.43.94c0,0,.18.48,1.7-.53,0,0,.29-.3,1.42-.78l1.63-.29.77-.18,1.84-.05s3.6.8,3.79,1.17l.83,4.75.19,1.23.77,2.67.03,1.25c-.06.29-.12.58-.19.87-.08.35-.05.6.28.78.26.14.3.35.21.61-.05.15-.09.31-.12.47-.13.66.02.91.7.99.7.08,1.42.11,2.13.12.53,0,.72-.3.44-.76-.27-.43-.66-.78-.99-1.17-.1-.12-.23-.26-.23-.39,0-.61-.42-1.86-.42-1.86-.11-.93-.11-2.16.37-3.23,0,0,.34-1.13.34-2.14l.26-3.41s1.61.53,3.07-.17c0,0,.31-.05.43-.34,0,0,.6.34.55-.48l.67-.82.5-.77.14-.48.43.07s.14-.46.02-.62l-.12-.17.7-.17s.29-.19.26-.89l1.15-.84s.55-.14.48-1.56c0,0-.36-1.06.22-2.71,0,0,.29-.05.26-1.3l.26-.48s.67-.38.84-1.32l1.99-1.37.5-.58.05-.34.53-.26.29-.29s1.2-.02,1.27-.02.29.07.29.07c0,0,.48.46,1.04.1l.35-.31.38-.19s.7-.25.9-.96c0,0,.31-.48-.07-.98"/>
</svg>