<?xml version="1.0" encoding="UTF-8"?>
<svg id="Capa_1" xmlns="http://www.w3.org/2000/svg" viewBox="0 0 60 60">
  <defs>
    <style>
      .cls-1 {
        fill: #98c240;
      }
    </style>
  </defs>
  <g id="_x31_46_-_house_x2C__Bird_x2C__bird_house_x2C__spring">
    <path class="cls-1" d="M31.11,7.62L5,22.83c.18,1.04.91,1.76,1.82,1.76.18,0,.36,0,.64-.1l23.47-9.11h.36l23.47,9.11c.18.1.36.1.64.1h0c.46,0,1-.21,1.27-.62.27-.31.45-.72.55-1.14L31.11,7.62Z"/>
  </g>
  <rect class="cls-1" x="48" y="19.43" width="3" height="29.57"/>
  <rect class="cls-1" x="11" y="19.43" width="3" height="29.57"/>
  <path class="cls-1" d="M39.61,44.34c-.33-.89-.52-1.77-.52-2.71v-13.63c.05-.93.19-1.87.52-2.71l.33-.89c.14-.33,0-.56-.09-.7-.14-.19-.38-.33-.61-.33-.09,0-.24.05-.33.09l-.71.37c-1.08.51-2.26.79-3.49.79h-7.64c-1.23,0-2.41-.28-3.49-.79l-.71-.37c-.09-.05-.24-.09-.33-.09-.24,0-.47.14-.61.33-.09.14-.19.37-.09.7l.33.89c.33.89.52,1.77.52,2.71v13.63c0,.93-.19,1.82-.52,2.71l-.33.89c-.14.33,0,.56.09.7.14.19.38.33.61.33.09,0,.24-.05.33-.09l.71-.37c1.08-.51,2.26-.79,3.49-.79h7.64c1.23,0,2.41.28,3.49.79l.71.37c.09.05.24.09.33.09.24,0,.47-.14.61-.33.09-.14.19-.37.09-.7l-.33-.89ZM30.41,29.34c.42-.75,1.14-1.25,1.97-1.37.07,0,.13.03.16.09.32.77.26,1.64-.16,2.39-.42.75-1.14,1.25-1.97,1.37-.07,0-.13-.03-.16-.09-.32-.77-.26-1.64.16-2.39ZM32.62,38.69c0,.4-.3.71-.68.76-.04,0-.07.02-.11.02-.43,0-.78-.35-.78-.78s.35-.78.78-.78c.04,0,.07.02.11.02.38.05.68.37.68.76ZM30.06,41.79c-.33,0-.6-.27-.6-.6,0-.3.23-.54.52-.58.03,0,.05-.02.08-.02.28,0,.5.19.57.45.01.05.03.09.03.14,0,.33-.27.6-.6.6ZM30.06,39.93s-.05,0-.08,0v-5.98c0-1.08.88-1.96,1.96-1.95v5.4s-.09-.01-.13-.01c-.71,0-1.29.58-1.29,1.29s.58,1.29,1.29,1.29c.04,0,.09,0,.13-.01v1.09h-.61c-.08-.63-.62-1.12-1.27-1.12ZM32.56,42.52c-.35,0-.62-.28-.62-.62s.28-.62.62-.62.62.28.62.62-.28.62-.62.62Z"/>
</svg>