<?xml version="1.0" encoding="UTF-8"?>
<svg id="Capa_1" xmlns="http://www.w3.org/2000/svg" viewBox="0 0 60 60">
  <defs>
    <style>
      .cls-1 {
        fill: #183e70;
      }
    </style>
  </defs>
  <path class="cls-1" d="M53.22,52.56c-.25-12.42-10.58-22.47-23.22-22.47S7.02,40.14,6.78,52.56h7.19v-5.64c0-.25.25-.49.5-.49s.5.24.5.49v5.64h30v-5.64c0-.25.25-.49.5-.49s.5.24.5.49v5.64h7.27ZM35.34,40.8c-1.69,2.15-3.11,4.87-4.83,6.95-.6.72-1.4.93-2.22.4-.9-1.02-2.1-2.01-2.93-3.05-1.32-1.65.55-3.65,2.31-2.17.4.34.9,1.08,1.25,1.32.06.04.07.09.16.06l3.75-5.36c1.35-1.22,3.28.26,2.51,1.86Z"/>
  <path class="cls-1" d="M29.74,28.43c5.76,0,10.5-4.74,10.5-10.5s-4.74-10.5-10.5-10.5-10.5,4.74-10.5,10.5,4.4,10.5,10.5,10.5Z"/>
</svg>