<?xml version="1.0" encoding="UTF-8"?>
<svg id="Capa_1" xmlns="http://www.w3.org/2000/svg" viewBox="0 0 60 60">
  <defs>
    <style>
      .cls-1 {
        fill: #183e70;
      }
    </style>
  </defs>
  <path class="cls-1" d="M58.69,17.87s-.13-.42-.72-.61c0,0-.66-.49-1.18-1.3l-1.31-1.66-.68-1.02,1.33-.58s.63-.52-.16-.95c0,0-1.59-.68-2.24-.71h-.57s-1.01-.83-2.24-1.21c0,0-.84-.63-1.37-.43,0,0-.46-.32-1.05,0,0,0-1.15-.43-1.24.03,0,0,.63,1.07.98,1.18l-.08.14-.3.37s-.91.52-1.58,1.03l-.61.56s-.34.2-.55.46l-.63.48s-.94.57-1.02.65c0,0-.57.19-.66.32,0,0-.22.03-.55.25l-.27-.11s-.16-.11-.29-.11-.47-.11-.47-.11c0,0-5.12-3.34-7.08-.06,0,0-.15.52-.24.83,0,0-.14.25-.14.47l-.37.51s-2.24,1.57-4,1.22l-4.62-.2-7.72-1.47s-2.84-1.57-7.36-.18c0,0-.86-.13-1.76.21,0,0-.88.15-1.17.51l-.68.32s-.42.15-1.25,1.17c0,0-.78,1.25-1.03,2.07,0,0-1.05,3.28-.85,7.36,0,0-.07,4.27-.42,4.96l-.58,4.16-.86,2.05.32-.42-.05.98s.29.76,1.07.37c0,0,.39-.39.61-1.59,0,0-.2-1.17-.41-1.34,0,0,1.27-9.31,1.29-9.6l.14.71s.41,3.25,1,4.54l.02.12s.24,1.44-.29,3.12l-1.2,2.45-.49,2.07s-.03,1.56-.07,1.73c-.03.17-.03.29-.03.29l-.66,3.86s-.27.84-.29,1.25c-.02.44.16.75.62.88.71.2.74.27.7,1.01-.04.63.16.9.79.94.73.05,1.47.07,2.2.07.22,0,.58-.09.62-.22.07-.19-.03-.52-.17-.69-.34-.4-.7-.81-1.13-1.09-.72-.47-1.03-1.09-1.01-1.93,0-.07,0-.15,0-.22h0c.06-.62.28-1.51.84-2.66,1.24-2.54,1.19-2.49,1.19-2.49l.68-.98,2.34-4.54.47,1.52s.19,3.1-.12,3.81c0,0-.22.27.17.59,0,0,.07.59.71,1.15,0,0,.63,1.59,1.24,2.34l.46.95h0c.26.57.45,1.18.51,1.85.03.36.28.61.69.63.44.02.59.25.5.69-.1.51.08.84.58.88.9.07,1.81.08,2.71.05.41-.01.55-.3.32-.64-.28-.42-.65-.79-.97-1.19-.51-.63-1.07-1.23-1.52-1.89-.38-.7-.77-1.59-.86-2.49l-.41-2.81s.47-.44.36-5.64c0,0,.07-.07.1-.58,0,0,.3.07.25-.63l.22-.25.61-.12s1.07.95,3.39,1.66l1.9,1s1.22,1.49,2.57,1c0,0,.19.51,1.79-.56,0,0,.3-.32,1.51-.83l1.73-.3.81-.19,1.95-.05s3.81.85,4.01,1.24l.88,5.03.2,1.3.81,2.83.04,1.32c-.06.31-.13.61-.2.92-.08.37-.06.64.29.82.28.15.32.37.22.65-.06.16-.1.33-.13.49-.13.7.02.96.74,1.04.75.08,1.5.12,2.25.12.57,0,.77-.32.46-.8-.29-.45-.7-.83-1.05-1.24-.1-.12-.25-.27-.25-.41,0-.64-.44-1.97-.44-1.97-.11-.98-.12-2.29.39-3.42,0,0,.36-1.19.36-2.26l.28-3.61s1.7.56,3.25-.18c0,0,.33-.05.46-.36,0,0,.64.36.58-.51l.71-.86.53-.81.15-.51.46.08s.15-.48.03-.66l-.13-.18.74-.18s.3-.2.28-.94l1.22-.89s.58-.15.51-1.65c0,0-.38-1.12.23-2.87,0,0,.3-.05.28-1.37l.28-.51s.71-.41.89-1.4l2.11-1.45.53-.61.05-.36.56-.28.3-.3s1.27-.03,1.35-.03.3.08.3.08c0,0,.51.48,1.1.1l.37-.33.41-.2s.74-.27.95-1.02c0,0,.33-.51-.08-1.04"/>
</svg>