<?xml version="1.0" encoding="UTF-8"?>
<svg id="Capa_1" xmlns="http://www.w3.org/2000/svg" viewBox="0 0 60 60">
  <defs>
    <style>
      .cls-1 {
        fill: #183e70;
      }
    </style>
  </defs>
  <path class="cls-1" d="M49.26,51.03c-.73-1.96-1.15-3.92-1.15-5.98V14.95c.1-2.06.42-4.12,1.15-5.98l.73-1.96c.31-.72,0-1.24-.21-1.55-.31-.41-.83-.72-1.35-.72-.21,0-.52.1-.73.21l-1.56.82c-2.39,1.13-5,1.75-7.7,1.75h-16.87c-2.71,0-5.31-.62-7.7-1.75l-1.56-.82c-.21-.1-.52-.21-.73-.21-.52,0-1.04.31-1.35.72-.21.31-.42.82-.21,1.55l.73,1.96c.73,1.96,1.15,3.92,1.15,5.98v30.1c0,2.06-.42,4.02-1.15,5.98l-.73,1.96c-.31.72,0,1.24.21,1.55.31.41.83.72,1.35.72.21,0,.52-.1.73-.21l1.56-.82c2.39-1.13,5-1.75,7.7-1.75h16.87c2.71,0,5.31.62,7.7,1.75l1.56.82c.21.1.52.21.73.21.52,0,1.04-.31,1.35-.72.21-.31.42-.82.21-1.55l-.73-1.96ZM28.94,17.9c.93-1.65,2.51-2.75,4.35-3.02.16-.02.3.06.36.2.7,1.7.57,3.63-.36,5.28-.93,1.65-2.51,2.75-4.35,3.02-.16.02-.3-.06-.36-.2-.7-1.7-.57-3.63.36-5.28ZM33.83,38.55c0,.87-.66,1.57-1.5,1.69-.08.01-.15.05-.23.05-.96,0-1.73-.78-1.73-1.73s.78-1.73,1.73-1.73c.08,0,.15.04.23.05.84.12,1.5.81,1.5,1.69ZM28.18,45.4c-.73,0-1.32-.59-1.32-1.32,0-.66.5-1.19,1.14-1.28.06,0,.12-.04.18-.04.62,0,1.11.43,1.25,1,.03.1.06.21.06.32,0,.73-.59,1.32-1.32,1.32ZM28.18,41.29c-.06,0-.12.01-.18.02v-13.2c0-2.39,1.94-4.32,4.33-4.31v11.93c-.1,0-.19-.03-.29-.03-1.57,0-2.84,1.27-2.84,2.84s1.27,2.84,2.84,2.84c.1,0,.19-.02.29-.03v2.42h-1.34c-.18-1.4-1.36-2.48-2.8-2.48ZM33.7,47c-.76,0-1.38-.62-1.38-1.38s.62-1.38,1.38-1.38,1.38.62,1.38,1.38-.62,1.38-1.38,1.38Z"/>
</svg>