<?xml version="1.0" encoding="UTF-8"?>
<svg id="Capa_1" xmlns="http://www.w3.org/2000/svg" viewBox="0 0 989.32 534.35">
  <defs>
    <style>
      .cls-1 {
        fill: #fff;
      }

      .cls-2 {
        fill: #a5c71b;
      }
    </style>
  </defs>
  <g>
    <path class="cls-1" d="M414.07,531.2h.08l8.73-23.53h2.55l-9.85,26.19h-2.81l-9.78-26.19h2.47l8.69,23.53h-.08Z"/>
    <path class="cls-1" d="M430.44,507.7h2.58v26.16h-2.58v-26.16Z"/>
    <path class="cls-1" d="M452.62,507.18c1.52,0,2.89.12,4.1.37,1.21.25,2.07.46,2.57.64v2.17c-1.25-.32-2.53-.56-3.84-.71-1.31-.15-2.59-.17-3.84-.06-1.25.11-2.42.39-3.5.83-1.09.44-2.04,1.09-2.87,1.97-.83.88-1.47,2-1.95,3.37-.47,1.37-.71,3.05-.71,5.02s.24,3.65.71,5.02c.47,1.38,1.12,2.5,1.93,3.37.81.87,1.76,1.54,2.85,1.99,1.09.45,2.25.73,3.49.84,1.24.11,2.52.08,3.84-.1,1.32-.17,2.62-.42,3.9-.75v2.1c-.73.23-1.47.41-2.25.56-.65.12-1.37.24-2.15.35-.79.11-1.54.17-2.27.17-1.27,0-2.65-.19-4.12-.56-1.47-.38-2.85-1.07-4.12-2.08-1.27-1.01-2.33-2.4-3.17-4.16-.84-1.76-1.26-4.01-1.26-6.76s.42-5,1.26-6.76c.84-1.76,1.89-3.15,3.17-4.16,1.27-1.01,2.65-1.71,4.12-2.1,1.47-.39,2.85-.58,4.12-.58Z"/>
    <path class="cls-1" d="M488.03,507.7v26.16h-2.58v-11.88h-14.73v11.88h-2.58v-26.16h2.58v12.03h14.73v-12.03h2.58Z"/>
    <path class="cls-1" d="M512.01,526.74h-12.78l-2.92,7.12h-2.62l10.64-26.16h3.04l10.15,26.16h-2.59l-2.92-7.12ZM511.12,524.49l-5.47-14.39h-.04l-5.47,14.39h10.98Z"/>
    <path class="cls-1" d="M542.63,520.84c0,2.02-.26,3.84-.77,5.44-.51,1.61-1.3,2.97-2.36,4.1-1.06,1.12-2.4,1.98-4.03,2.58-1.62.6-3.56.9-5.81.9h-6.78v-26.12h6.78c2.25,0,4.18.3,5.81.92,1.62.61,2.97,1.48,4.03,2.6,1.06,1.12,1.85,2.49,2.36,4.1.51,1.61.77,3.42.77,5.44v.04ZM529.63,531.61c3.42,0,6-.96,7.74-2.89,1.74-1.92,2.63-4.58,2.68-7.98v-.04c0-1.87-.25-3.49-.75-4.83-.5-1.35-1.2-2.46-2.1-3.33-.9-.87-1.99-1.52-3.28-1.93-1.29-.41-2.72-.62-4.29-.62h-4.12v21.62h4.12Z"/>
    <path class="cls-1" d="M565.75,526.74h-12.78l-2.92,7.12h-2.62l10.64-26.16h3.04l10.15,26.16h-2.59l-2.92-7.12ZM564.85,524.49l-5.47-14.39h-.04l-5.47,14.39h10.98Z"/>
    <path class="cls-1" d="M587.44,522.47h9.41v2.59h-9.41v-2.59Z"/>
    <path class="cls-1" d="M627.35,507.18c1.52,0,2.89.12,4.1.37,1.21.25,2.07.46,2.57.64v2.17c-1.25-.32-2.53-.56-3.84-.71-1.31-.15-2.59-.17-3.84-.06-1.25.11-2.42.39-3.5.83-1.09.44-2.04,1.09-2.87,1.97-.83.88-1.47,2-1.95,3.37-.47,1.37-.71,3.05-.71,5.02s.24,3.65.71,5.02c.47,1.38,1.12,2.5,1.93,3.37.81.87,1.76,1.54,2.85,1.99,1.09.45,2.25.73,3.49.84,1.24.11,2.52.08,3.84-.1,1.32-.17,2.62-.42,3.9-.75v2.1c-.73.23-1.47.41-2.25.56-.65.12-1.37.24-2.15.35-.79.11-1.54.17-2.27.17-1.27,0-2.65-.19-4.12-.56-1.47-.38-2.85-1.07-4.12-2.08-1.27-1.01-2.33-2.4-3.17-4.16-.84-1.76-1.26-4.01-1.26-6.76s.42-5,1.26-6.76c.84-1.76,1.89-3.15,3.17-4.16,1.27-1.01,2.65-1.71,4.12-2.1,1.47-.39,2.85-.58,4.12-.58Z"/>
    <path class="cls-1" d="M653.13,507.22c1.17,0,2.44.19,3.79.58,1.35.39,2.59,1.09,3.73,2.1,1.14,1.01,2.08,2.38,2.83,4.12.75,1.73,1.13,3.95,1.13,6.64s-.38,4.93-1.13,6.7c-.75,1.77-1.69,3.17-2.83,4.21-1.14,1.03-2.38,1.76-3.73,2.17-1.35.41-2.61.62-3.79.62s-2.47-.2-3.82-.62c-1.35-.41-2.6-1.14-3.75-2.17-1.15-1.03-2.11-2.44-2.87-4.21-.76-1.77-1.14-4-1.14-6.7s.38-4.91,1.14-6.64c.76-1.73,1.72-3.11,2.87-4.12,1.15-1.01,2.4-1.71,3.75-2.1,1.35-.39,2.62-.58,3.82-.58ZM653.13,532.1c1.12,0,2.22-.21,3.28-.62,1.06-.41,2.01-1.08,2.83-1.99.82-.91,1.49-2.09,1.99-3.53.5-1.44.75-3.18.75-5.24s-.25-3.71-.75-5.14c-.5-1.43-1.16-2.59-1.99-3.49-.82-.9-1.77-1.56-2.83-1.99-1.06-.42-2.15-.64-3.28-.64s-2.22.21-3.3.64c-1.07.43-2.03,1.1-2.87,2.01-.84.91-1.52,2.09-2.04,3.53-.53,1.44-.79,3.17-.79,5.2s.26,3.75.79,5.18c.52,1.43,1.2,2.59,2.04,3.49.84.9,1.79,1.56,2.87,1.97,1.08.41,2.17.62,3.3.62Z"/>
    <path class="cls-1" d="M671.45,533.86v-26.19h2.58v23.95h10.72v2.25h-13.3Z"/>
    <path class="cls-1" d="M700.76,507.22c1.17,0,2.44.19,3.79.58,1.35.39,2.59,1.09,3.73,2.1,1.14,1.01,2.08,2.38,2.83,4.12.75,1.73,1.13,3.95,1.13,6.64s-.38,4.93-1.13,6.7c-.75,1.77-1.69,3.17-2.83,4.21-1.14,1.03-2.38,1.76-3.73,2.17-1.35.41-2.61.62-3.79.62s-2.47-.2-3.82-.62c-1.35-.41-2.6-1.14-3.75-2.17-1.15-1.03-2.11-2.44-2.87-4.21-.76-1.77-1.14-4-1.14-6.7s.38-4.91,1.14-6.64c.76-1.73,1.72-3.11,2.87-4.12,1.15-1.01,2.4-1.71,3.75-2.1,1.35-.39,2.62-.58,3.82-.58ZM700.76,532.1c1.12,0,2.22-.21,3.28-.62,1.06-.41,2.01-1.08,2.83-1.99s1.49-2.09,1.99-3.53c.5-1.44.75-3.18.75-5.24s-.25-3.71-.75-5.14c-.5-1.43-1.16-2.59-1.99-3.49-.82-.9-1.77-1.56-2.83-1.99-1.06-.42-2.15-.64-3.28-.64s-2.22.21-3.3.64c-1.07.43-2.03,1.1-2.87,2.01-.84.91-1.52,2.09-2.04,3.53-.53,1.44-.79,3.17-.79,5.2s.26,3.75.79,5.18c.52,1.43,1.2,2.59,2.04,3.49.84.9,1.79,1.56,2.87,1.97,1.08.41,2.17.62,3.3.62Z"/>
    <path class="cls-1" d="M723.28,507.67l9.67,22.89,9.37-22.89h3.97-3.97,3.97v26.19h-2.55v-23.57c-.48,1.17-.98,2.41-1.5,3.71-.45,1.12-.96,2.39-1.54,3.78-.57,1.4-1.16,2.84-1.76,4.31l-4.8,11.77h-2.17l-10.08-23.57v23.57h-2.58v-26.19h3.97Z"/>
    <path class="cls-1" d="M764.34,520.26c.8.15,1.54.38,2.21.69.68.31,1.26.72,1.76,1.22.5.5.89,1.11,1.16,1.82.27.71.41,1.54.41,2.49,0,1.62-.34,2.92-1.01,3.9-.68.97-1.55,1.72-2.62,2.23-1.08.51-2.3.85-3.67,1.01-1.37.16-2.75.24-4.12.24h-4.08v-26.12h4.08c1.27,0,2.54.05,3.8.15,1.26.1,2.4.36,3.41.79,1.01.42,1.84,1.08,2.47,1.98.64.9.96,2.13.96,3.7v-.08c0,1-.13,1.82-.39,2.48-.26.66-.6,1.21-1.03,1.66-.42.45-.93.81-1.52,1.08-.59.27-1.19.52-1.82.75ZM757,510.14v8.96h3.49c.67,0,1.37-.08,2.1-.23.72-.15,1.38-.41,1.97-.77.59-.36,1.07-.85,1.44-1.48.38-.62.56-1.41.56-2.36,0-1.07-.23-1.9-.69-2.47-.46-.57-1.03-.99-1.69-1.26-.66-.26-1.36-.42-2.08-.47-.72-.05-1.36-.08-1.91-.08h-3.18v.15ZM760.07,531.61c.97,0,1.83-.08,2.57-.23s1.37-.34,1.89-.58c.52-.24.96-.51,1.29-.83.34-.31.61-.63.81-.96.47-.75.7-1.61.68-2.59,0-.95-.18-1.75-.53-2.4-.35-.65-.82-1.17-1.42-1.55-.6-.39-1.29-.66-2.06-.83-.77-.16-1.59-.24-2.44-.24h-3.86v10.19h3.07Z"/>
    <path class="cls-1" d="M777.23,507.7h2.58v26.16h-2.58v-26.16Z"/>
    <path class="cls-1" d="M803.43,526.74h-12.78l-2.92,7.12h-2.62l10.64-26.16h3.04l10.15,26.16h-2.59l-2.92-7.12ZM802.53,524.49l-5.47-14.39h-.04l-5.47,14.39h10.98Z"/>
  </g>
  <g>
    <g>
      <path class="cls-1" d="M266.66,433.26v49.18h-7.11v-22.38h-23.43v22.38h-7.04v-49.18h7.04v20.62h23.43v-20.62h7.11Z"/>
      <path class="cls-1" d="M320.07,482.44l-5.21-12.46h-25.19l-5.21,12.46h-6.83l21.04-49.18h7.46l20.69,49.18h-6.76ZM291.85,464.08h20.69l-10.34-24.14-10.34,24.14Z"/>
      <path class="cls-1" d="M358.28,432.41c1.78,0,3.47.12,5.07.35,1.59.24,3,.47,4.22.7,1.41.33,2.72.68,3.94,1.05v5.98c-2.11-.56-4.29-1.02-6.54-1.37-2.25-.35-4.46-.47-6.62-.35-2.16.12-4.21.53-6.16,1.23-1.95.7-3.65,1.79-5.1,3.27-1.45,1.48-2.61,3.4-3.48,5.77-.87,2.37-1.3,5.31-1.3,8.83s.43,6.47,1.3,8.87c.87,2.39,2.03,4.33,3.48,5.8,1.45,1.48,3.15,2.56,5.1,3.24,1.95.68,4,1.07,6.16,1.16,2.16.1,4.36-.02,6.62-.35,2.25-.33,4.43-.8,6.54-1.41v5.77c-1.22.47-2.53.87-3.94,1.19-1.22.28-2.63.54-4.22.77-1.59.23-3.28.35-5.07.35-1.6,0-3.28-.15-5.07-.46-1.78-.31-3.54-.82-5.28-1.55-1.74-.73-3.39-1.71-4.96-2.96-1.57-1.24-2.97-2.8-4.19-4.68-1.22-1.88-2.18-4.12-2.88-6.72-.7-2.6-1.05-5.62-1.05-9.04,0-5.11.77-9.32,2.32-12.63,1.55-3.31,3.48-5.91,5.81-7.81,2.32-1.9,4.86-3.21,7.6-3.94,2.74-.73,5.31-1.09,7.71-1.09Z"/>
      <path class="cls-1" d="M389.73,433.26v49.18h-7.04v-49.18h7.04Z"/>
      <path class="cls-1" d="M413.16,476.25h20.55v6.19h-27.58v-49.18h27.51l-1.05,6.26h-19.42v14.35h18.65v6.26h-18.65v16.11Z"/>
      <path class="cls-1" d="M486.83,482.44h-8.87l-22.52-40.39v40.39h-7.04v-49.18h9.71l21.67,39.4v-39.4h7.04v49.18Z"/>
      <path class="cls-1" d="M502.38,482.44v-49.18h14.5c3.61,0,7,.55,10.17,1.65,3.17,1.1,5.93,2.7,8.3,4.79,2.37,2.09,4.25,4.62,5.63,7.6,1.38,2.98,2.08,6.37,2.08,10.17,0,3.52-.55,6.8-1.65,9.85-1.1,3.05-2.67,5.69-4.71,7.92-2.04,2.23-4.5,3.99-7.39,5.28-2.88,1.29-6.13,1.94-9.75,1.94h-17.17ZM509.42,476.32h10.13c2.16,0,4.21-.49,6.16-1.48,1.95-.99,3.66-2.32,5.14-4.01,1.48-1.69,2.64-3.68,3.48-5.98.84-2.3,1.27-4.76,1.27-7.39s-.42-5.11-1.27-7.32c-.84-2.21-2.01-4.09-3.48-5.67-1.48-1.57-3.19-2.8-5.14-3.69-1.95-.89-4-1.34-6.16-1.34h-10.13v36.87Z"/>
      <path class="cls-1" d="M594.14,482.44l-5.21-12.46h-25.19l-5.21,12.46h-6.83l21.04-49.18h7.46l20.69,49.18h-6.76ZM565.92,464.08h20.69l-10.34-24.14-10.34,24.14Z"/>
    </g>
    <g>
      <path class="cls-1" d="M655.2,447.7c-2.11-1.5-4.23-2.7-6.37-3.59-2.13-.89-4.07-1.34-5.8-1.34-1.64,0-2.97.31-3.97.91-1.01.61-1.51,1.57-1.51,2.88,0,.7.21,1.32.63,1.86.42.54,1,1.02,1.72,1.44.73.42,1.56.82,2.5,1.19.94.38,1.95.73,3.02,1.05,1.73.61,3.51,1.27,5.31,1.97,1.81.7,3.42,1.64,4.85,2.81,1.43,1.17,2.6,2.65,3.52,4.43.91,1.78,1.37,4.03,1.37,6.75s-.49,4.89-1.48,6.79c-.99,1.9-2.31,3.47-3.97,4.71-1.67,1.24-3.56,2.16-5.7,2.74-2.13.59-4.33.88-6.58.88-3.28,0-6.55-.69-9.81-2.08-3.26-1.38-6.15-3.41-8.69-6.08l4.36-9.5c2.3,2.35,4.72,4.17,7.28,5.49,2.55,1.31,4.93,1.97,7.14,1.97,1.78,0,3.26-.34,4.43-1.02,1.17-.68,1.78-1.75,1.83-3.2,0-.84-.22-1.58-.67-2.22-.45-.63-1.04-1.19-1.79-1.69-.75-.49-1.63-.91-2.64-1.27-1.01-.35-2.05-.71-3.13-1.09-1.73-.56-3.47-1.2-5.21-1.9-1.73-.7-3.29-1.62-4.68-2.74-1.38-1.13-2.51-2.54-3.38-4.26-.87-1.71-1.3-3.88-1.3-6.51s.47-4.79,1.41-6.65c.94-1.85,2.19-3.36,3.76-4.54,1.57-1.17,3.38-2.04,5.42-2.6,2.04-.56,4.14-.84,6.3-.84,2.76,0,5.52.5,8.26,1.51,2.74,1.01,5.29,2.38,7.63,4.12l-4.08,9.57Z"/>
      <path class="cls-1" d="M702.61,471.97h-18.64l-4.22,10.48h-12.8l17.94-49.17h16.81l18.85,49.17h-13.72l-4.22-10.48ZM699.37,462.76c-.38-1.36-.73-2.59-1.05-3.69-.33-1.1-.72-2.36-1.16-3.76-.45-1.41-.89-2.83-1.34-4.26-.45-1.43-.89-2.81-1.34-4.15-.45-1.34-.83-2.47-1.16-3.41-1.27,3.61-2.39,6.82-3.38,9.64-.42,1.22-.83,2.4-1.23,3.55-.4,1.15-.76,2.17-1.09,3.06-.33.89-.66,1.9-.98,3.03h12.73Z"/>
      <path class="cls-1" d="M774.08,482.45h-16.46l-17.16-33.62v33.62h-11.61v-49.17h16.88l16.39,33.41v-33.41h11.96v49.17Z"/>
      <path class="cls-1" d="M834.01,433.28v35.66c0,3.1-.52,5.58-1.55,7.46-1.03,1.88-2.31,3.32-3.83,4.32-1.53,1.01-3.15,1.68-4.89,2.01-1.74.33-3.31.49-4.71.49-1.69,0-3.19-.06-4.5-.17-1.31-.12-2.44-.27-3.38-.46-1.08-.19-2.02-.4-2.82-.63v-10.9c1.27.38,2.37.65,3.31.81.94.16,1.95.29,3.02.39,1.08.09,2.09.03,3.02-.18.94-.21,1.71-.62,2.32-1.23.61-.61.91-1.5.91-2.67v-34.89h13.08Z"/>
      <path class="cls-1" d="M869.46,432.58c2.48,0,5.17.37,8.06,1.09,2.88.73,5.56,2.04,8.02,3.94,2.46,1.9,4.5,4.49,6.12,7.77,1.62,3.28,2.43,7.48,2.43,12.59,0,3.42-.38,6.42-1.13,9-.75,2.58-1.76,4.81-3.02,6.68-1.27,1.88-2.73,3.44-4.4,4.68-1.67,1.24-3.41,2.23-5.24,2.96-1.83.73-3.68,1.23-5.56,1.51-1.88.28-3.64.42-5.28.42-2.48,0-5.16-.35-8.02-1.05-2.86-.7-5.52-1.98-7.98-3.83-2.46-1.85-4.51-4.42-6.15-7.7-1.64-3.28-2.46-7.5-2.46-12.66,0-3.42.38-6.42,1.13-9,.75-2.58,1.77-4.81,3.06-6.68,1.29-1.88,2.76-3.44,4.43-4.68,1.67-1.24,3.4-2.24,5.21-2.99,1.81-.75,3.65-1.28,5.52-1.58,1.88-.3,3.64-.46,5.28-.46ZM858.34,457.9c0,2.02.21,3.97.63,5.87.42,1.9,1.08,3.58,1.97,5.03.89,1.45,2.04,2.61,3.45,3.48,1.41.87,3.1,1.3,5.07,1.3s3.66-.43,5.07-1.3c1.41-.87,2.56-2.03,3.45-3.48.89-1.45,1.55-3.13,1.97-5.03.42-1.9.63-3.86.63-5.87s-.21-4.12-.63-6.01c-.42-1.9-1.08-3.56-1.97-4.99-.89-1.43-2.04-2.57-3.45-3.41-1.41-.84-3.1-1.27-5.07-1.27s-3.66.42-5.07,1.27c-1.41.84-2.56,1.98-3.45,3.41-.89,1.43-1.55,3.1-1.97,4.99-.42,1.9-.63,3.9-.63,6.01Z"/>
      <path class="cls-1" d="M933.75,447.7c-2.11-1.5-4.23-2.7-6.37-3.59-2.13-.89-4.07-1.34-5.8-1.34-1.64,0-2.97.31-3.97.91-1.01.61-1.51,1.57-1.51,2.88,0,.7.21,1.32.63,1.86.42.54,1,1.02,1.72,1.44.73.42,1.56.82,2.5,1.19.94.38,1.95.73,3.02,1.05,1.73.61,3.51,1.27,5.31,1.97,1.81.7,3.42,1.64,4.85,2.81,1.43,1.17,2.6,2.65,3.52,4.43.91,1.78,1.37,4.03,1.37,6.75s-.49,4.89-1.48,6.79c-.99,1.9-2.31,3.47-3.97,4.71-1.67,1.24-3.56,2.16-5.7,2.74-2.13.59-4.33.88-6.58.88-3.28,0-6.55-.69-9.81-2.08-3.26-1.38-6.15-3.41-8.69-6.08l4.36-9.5c2.3,2.35,4.72,4.17,7.28,5.49,2.55,1.31,4.93,1.97,7.14,1.97,1.78,0,3.26-.34,4.43-1.02,1.17-.68,1.78-1.75,1.83-3.2,0-.84-.22-1.58-.67-2.22-.45-.63-1.04-1.19-1.79-1.69-.75-.49-1.63-.91-2.64-1.27-1.01-.35-2.05-.71-3.13-1.09-1.73-.56-3.47-1.2-5.21-1.9-1.73-.7-3.29-1.62-4.68-2.74-1.38-1.13-2.51-2.54-3.38-4.26-.87-1.71-1.3-3.88-1.3-6.51s.47-4.79,1.41-6.65c.94-1.85,2.19-3.36,3.76-4.54,1.57-1.17,3.38-2.04,5.42-2.6,2.04-.56,4.14-.84,6.3-.84,2.76,0,5.52.5,8.26,1.51,2.74,1.01,5.29,2.38,7.63,4.12l-4.08,9.57Z"/>
      <path class="cls-1" d="M962.31,473.17h22.37v9.28h-35.38l-.14-49.17h34.75l-1.62,9.28h-19.98v10.13h20.75v9.36h-20.75v11.11ZM960.91,430.75h8.58l9.36-10.27h-11.68l-6.26,10.27Z"/>
    </g>
  </g>
  <path class="cls-2" d="M821.45,0c-74.07,0-134.32,60.26-134.32,134.32v103.58c0,24.94-20.29,45.22-45.22,45.22h-45.04V0h-79.78v137.58h-147.03V0h-79.21v.02c-4.15.06-8.28.46-12.42.61-9.9.38-19.4,2.55-28.49,6.45-11.89,5.1-22.96,11.64-33.32,19.38-13.12,9.8-24.66,21.27-35.29,33.67-3.54,4.14-7,8.35-10.22,12.74-5.81,4.48-12.92,7.57-20.22,7.2-6.4-.33-12.19-1.7-18.43-3.18-55.22-13.16-100.89,35.18-115.93,49.7-7.93,7.66-15.66,18-16.33,22.53-.42,2.88-.95,8.59,7.96,14.42,9.36,6.12,17.28,7.14,38.44,11.31,21.16,4.17,53.48,7.21,73.48,1.3,18.44-5.45,39.27-21.66,46.98-35.48,5.57-9.98,6.63-16.83,9-27.87-1.69,7.87,2.21,19.82,2.94,27.96.59,6.6,1.44,13.13,3.26,19.52,4.97,17.46,15.78,32.98,25.86,47.8,3.41,5.02,7.41,12.13,11.29,20.53,4.42,10.71,8.46,21.57,11.74,32.7,3.71,14.37,5.61,29.48,3.78,43.17-.65,3.85-1.61,7.66-2.96,11.38-1.05,2.9-1.89,5.85-2.47,8.89-1.37,7.21-1.46,14.47-.34,21.67,1.63,10.44,5.55,16.12,11.97,19.49,0,0,0,0,0,0,5.27,3.79,20.45,5.79,28.8,5.84,10.33.07,12.63.31,21.23.41.6.04,1.21.04,1.82.02,1.8.01,3.83.02,6.25.02.58,0,1.15-.04,1.7-.1h69.11v-146.46h147.03v146.46h77.47v.1h47.35c74.07,0,134.32-60.26,134.32-134.32v-103.58c0-24.94,20.28-45.22,45.22-45.22h90.51v178.86c0,9.34-2.06,16.82-6.17,22.42-4.12,5.61-9.25,9.91-15.42,12.89-6.17,3-12.81,4.96-19.9,5.89-7.1.94-13.73,1.31-19.9,1.12-6.17-.19-13.37-.84-21.58-1.96v59.98c4.11.75,8.41,1.49,12.89,2.24,7.85,1.12,17.19,1.68,28.03,1.68s23.73-1.31,37.56-3.93c13.82-2.61,26.81-7.93,38.96-15.98,12.14-8.03,22.33-19.52,30.55-34.48,8.22-14.94,12.33-34.76,12.33-59.42V0h-167.87Z"/>
</svg>