<?xml version="1.0" encoding="UTF-8"?>
<svg id="Capa_1" xmlns="http://www.w3.org/2000/svg" viewBox="0 0 1350 1350">
  <defs>
    <style>
      .cls-1 {
        fill: #99c33f;
      }

      .cls-2 {
        fill: #193e72;
      }
    </style>
  </defs>
  <g>
    <path class="cls-2" d="M579.31,740.99c-2.44-1.26-5.25-1.88-8.45-1.88h-12.61v29.93h12.61c3.19,0,6.01-.62,8.45-1.88,2.44-1.26,4.33-3.01,5.69-5.26,1.35-2.25,2.03-4.86,2.03-7.82s-.68-5.58-2.03-7.83c-1.35-2.25-3.25-4-5.69-5.26ZM581.26,759.95c-1,1.69-2.4,3.01-4.21,3.96-1.81.94-3.95,1.41-6.43,1.41h-8.08v-22.49h8.08c2.48,0,4.63.47,6.43,1.41,1.81.94,3.21,2.25,4.21,3.93,1,1.68,1.49,3.65,1.49,5.9s-.5,4.18-1.49,5.88Z"/>
    <path class="cls-2" d="M608.06,747.62c-1.68-.97-3.62-1.45-5.81-1.45s-4.11.49-5.84,1.47c-1.73.99-3.08,2.35-4.06,4.08-.98,1.74-1.47,3.74-1.47,5.99s.5,4.25,1.52,5.98c1.01,1.74,2.44,3.11,4.28,4.11,1.84,1,3.97,1.49,6.39,1.49,1.88,0,3.59-.31,5.11-.94,1.52-.62,2.8-1.54,3.83-2.74l-2.27-2.65c-.83.91-1.79,1.59-2.89,2.05-1.1.46-2.32.68-3.66.68-1.63,0-3.06-.33-4.32-.98-1.26-.66-2.23-1.57-2.93-2.76-.51-.87-.77-1.85-.91-2.89h18.33c.03-.2.05-.41.06-.64.01-.23.02-.43.02-.6,0-2.34-.48-4.38-1.43-6.14s-2.27-3.11-3.95-4.08ZM598.44,750.59c1.11-.64,2.38-.96,3.81-.96s2.73.32,3.83.96c1.1.64,1.96,1.53,2.59,2.67.47.86.7,1.83.8,2.87h-14.44c.12-1.03.36-2,.82-2.85.63-1.15,1.5-2.05,2.61-2.69Z"/>
    <path class="cls-2" d="M648.43,750c-.85-1.11-1.84-2.05-3.08-2.66-1.6-.78-3.36-1.18-5.3-1.18-2.19,0-4.15.46-5.88,1.37-1.72.92-3.09,2.19-4.1,3.83-1.01,1.64-1.52,3.55-1.52,5.75s.5,4.08,1.52,5.73,2.38,2.94,4.1,3.86c1.73.93,3.69,1.39,5.88,1.39,1.94,0,3.71-.41,5.3-1.22,1.14-.58,2.05-1.44,2.87-2.43v1.94c0,2.56-.63,4.48-1.88,5.73-1.26,1.26-3.22,1.88-5.9,1.88-1.68,0-3.29-.27-4.83-.79-1.54-.52-2.84-1.25-3.89-2.16l-1.97,3.16c1.23,1.08,2.82,1.92,4.77,2.5,1.95.58,3.97.88,6.05.88,3.85,0,6.77-.94,8.77-2.82,2-1.88,2.99-4.81,2.99-8.81v-19.58h-3.89v3.62ZM647.3,760.96c-.67,1.12-1.59,1.99-2.76,2.61-1.17.63-2.51.94-4.02.94s-2.86-.31-4.04-.94c-1.19-.62-2.11-1.49-2.78-2.61-.67-1.11-1.01-2.39-1.01-3.84s.34-2.74,1.01-3.85c.67-1.11,1.59-1.97,2.78-2.58,1.18-.62,2.53-.92,4.04-.92s2.85.31,4.02.92c1.17.61,2.09,1.47,2.76,2.58.67,1.12,1.01,2.4,1.01,3.85s-.34,2.74-1.01,3.84Z"/>
    <path class="cls-2" d="M668.4,746.16c-1.79,0-3.51.25-5.15.75-1.64.5-3.04,1.22-4.21,2.16l1.71,3.08c.88-.74,1.97-1.33,3.25-1.77,1.28-.44,2.59-.66,3.93-.66,2.02,0,3.54.48,4.55,1.43,1.01.96,1.52,2.3,1.52,4.04v.81h-6.5c-2.25,0-4.04.3-5.37.9-1.32.6-2.28,1.39-2.87,2.39-.58,1-.88,2.11-.88,3.33,0,1.29.34,2.43,1.03,3.45.68,1.01,1.66,1.8,2.93,2.37s2.74.86,4.43.86c2.08,0,3.81-.39,5.17-1.18,1-.57,1.71-1.35,2.27-2.23v3.14h3.89v-13.68c0-3.11-.84-5.42-2.52-6.93-1.68-1.51-4.08-2.27-7.19-2.27ZM671.5,765.11c-1.16.68-2.5,1.02-4.04,1.02s-2.79-.33-3.68-1c-.89-.67-1.33-1.56-1.33-2.67,0-.97.36-1.8,1.07-2.48.71-.68,2.1-1.02,4.15-1.02h6.33v3.16c-.51,1.31-1.34,2.31-2.5,2.99Z"/>
    <path class="cls-2" d="M702.71,747.23c-1.41-.71-3.04-1.07-4.9-1.07-2.05,0-3.85.42-5.39,1.24-1.19.64-2.07,1.53-2.78,2.57v-3.59h-3.93v22.66h4.1v-11.67c0-1.65.29-3.03.88-4.14.58-1.12,1.42-1.95,2.5-2.52,1.08-.57,2.35-.86,3.81-.86,1.94,0,3.44.56,4.51,1.67,1.07,1.12,1.6,2.77,1.6,4.96v12.57h4.11v-13.04c0-2.22-.4-4.06-1.2-5.51-.8-1.45-1.9-2.54-3.31-3.25Z"/>
    <path class="cls-2" d="M723.09,746.16c-1.79,0-3.51.25-5.15.75-1.64.5-3.04,1.22-4.21,2.16l1.71,3.08c.88-.74,1.97-1.33,3.25-1.77,1.28-.44,2.59-.66,3.93-.66,2.02,0,3.54.48,4.55,1.43,1.01.96,1.52,2.3,1.52,4.04v.81h-6.5c-2.25,0-4.04.3-5.37.9-1.32.6-2.28,1.39-2.87,2.39-.58,1-.88,2.11-.88,3.33,0,1.29.34,2.43,1.03,3.45.68,1.01,1.66,1.8,2.93,2.37s2.74.86,4.43.86c2.08,0,3.81-.39,5.17-1.18,1-.57,1.71-1.35,2.27-2.23v3.14h3.89v-13.68c0-3.11-.84-5.42-2.52-6.93-1.68-1.51-4.08-2.27-7.19-2.27ZM726.19,765.11c-1.16.68-2.5,1.02-4.04,1.02s-2.79-.33-3.68-1c-.89-.67-1.33-1.56-1.33-2.67,0-.97.36-1.8,1.07-2.48.71-.68,2.1-1.02,4.15-1.02h6.33v3.16c-.51,1.31-1.34,2.31-2.5,2.99Z"/>
    <path class="cls-2" d="M757.68,749.96c-.78-1.03-1.66-1.92-2.74-2.52-1.54-.85-3.27-1.28-5.18-1.28-2.19,0-4.15.48-5.88,1.45-1.73.97-3.09,2.32-4.08,4.04-1,1.73-1.49,3.74-1.49,6.05s.5,4.33,1.49,6.07,2.36,3.09,4.08,4.06c1.73.97,3.69,1.45,5.88,1.45,1.97,0,3.73-.44,5.26-1.31,1.13-.64,2.04-1.58,2.82-2.68v3.73h3.94v-31.73h-4.1v12.65ZM756.72,761.92c-.67,1.22-1.59,2.14-2.74,2.8-1.16.66-2.44.98-3.87.98s-2.75-.33-3.89-.98-2.05-1.59-2.74-2.8c-.68-1.21-1.03-2.62-1.03-4.21s.35-3.03,1.03-4.21c.68-1.18,1.59-2.11,2.74-2.76,1.14-.65,2.44-.98,3.89-.98s2.72.33,3.87.98c1.15.66,2.07,1.58,2.74,2.76.67,1.18,1,2.58,1,4.21s-.33,3-1,4.21Z"/>
    <path class="cls-2" d="M784.66,747.62c-1.69-.97-3.62-1.45-5.82-1.45s-4.11.49-5.84,1.47c-1.73.99-3.08,2.35-4.06,4.08-.98,1.74-1.47,3.74-1.47,5.99s.5,4.25,1.52,5.98c1.01,1.74,2.44,3.11,4.28,4.11,1.84,1,3.96,1.49,6.39,1.49,1.89,0,3.59-.31,5.11-.94,1.52-.62,2.8-1.54,3.83-2.74l-2.26-2.65c-.83.91-1.79,1.59-2.89,2.05-1.1.46-2.32.68-3.65.68-1.63,0-3.07-.33-4.32-.98s-2.23-1.57-2.93-2.76c-.51-.87-.77-1.85-.91-2.89h18.33c.03-.2.05-.41.07-.64.01-.23.02-.43.02-.6,0-2.34-.48-4.38-1.43-6.14-.96-1.75-2.27-3.11-3.95-4.08ZM775.04,750.59c1.11-.64,2.38-.96,3.81-.96s2.73.32,3.83.96c1.1.64,1.96,1.53,2.59,2.67.47.86.69,1.83.8,2.87h-14.44c.12-1.03.36-2,.82-2.85.63-1.15,1.5-2.05,2.61-2.69Z"/>
    <path class="cls-2" d="M799.67,750.36v-3.98h-3.93v22.66h4.1v-11.29c0-2.48.64-4.38,1.93-5.68,1.28-1.31,3.02-1.97,5.21-1.97h.45c.15,0,.32.01.49.04v-3.98c-2.16,0-3.99.42-5.47,1.24-1.26.7-2.14,1.73-2.78,2.96Z"/>
    <path class="cls-2" d="M828.51,747.64c-1.78-.98-3.8-1.47-6.05-1.47s-4.3.49-6.07,1.47c-1.77.99-3.17,2.35-4.19,4.08-1.03,1.74-1.54,3.74-1.54,5.99s.51,4.21,1.54,5.96c1.02,1.75,2.42,3.13,4.19,4.13,1.77,1,3.79,1.49,6.07,1.49s4.27-.5,6.05-1.49c1.78-1,3.18-2.37,4.19-4.11,1.01-1.73,1.52-3.73,1.52-5.98s-.51-4.28-1.52-6.01-2.41-3.07-4.19-4.06ZM829.09,761.92c-.66,1.22-1.56,2.14-2.72,2.8-1.16.66-2.46.98-3.91.98s-2.75-.33-3.89-.98-2.05-1.59-2.74-2.8c-.68-1.21-1.03-2.62-1.03-4.21s.35-3.03,1.03-4.21c.68-1.18,1.59-2.11,2.74-2.76,1.14-.65,2.44-.98,3.89-.98s2.76.33,3.91.98c1.16.66,2.06,1.58,2.72,2.76.66,1.18.98,2.58.98,4.21s-.33,3-.98,4.21Z"/>
    <path class="cls-2" d="M853.36,757.71c-.84-.43-1.77-.76-2.8-1-1.03-.25-2.06-.44-3.08-.6-1.03-.15-1.96-.35-2.8-.58-.84-.23-1.53-.54-2.05-.96-.52-.42-.79-1.01-.79-1.78,0-.91.44-1.66,1.33-2.24.88-.58,2.22-.88,4.02-.88,1.11,0,2.22.13,3.33.39,1.12.26,2.18.73,3.21,1.41l1.75-3.25c-.97-.65-2.22-1.16-3.74-1.51-1.53-.36-3.03-.54-4.52-.54-1.94,0-3.61.28-5.02.84-1.41.56-2.5,1.35-3.27,2.37-.77,1.03-1.16,2.22-1.16,3.59s.26,2.36.77,3.14c.51.79,1.2,1.4,2.05,1.84.86.44,1.8.78,2.82,1.03,1.03.24,2.05.44,3.08.6,1.02.16,1.96.33,2.8.53.84.21,1.51.5,2.03.9.52.4.77.96.77,1.67,0,.97-.42,1.73-1.26,2.26-.84.54-2.21.81-4.12.81-1.48,0-2.94-.23-4.36-.68-1.42-.45-2.62-1.01-3.59-1.67l-1.71,3.25c.97.74,2.3,1.37,4,1.88,1.69.51,3.49.77,5.37.77,2.03,0,3.77-.28,5.22-.84,1.45-.55,2.58-1.33,3.37-2.33.8-1,1.2-2.18,1.2-3.55,0-1.28-.27-2.31-.8-3.08-.52-.77-1.21-1.37-2.05-1.79Z"/>
    <path class="cls-2" d="M890.75,747.62c-1.71-.97-3.68-1.45-5.9-1.45-1.94,0-3.69.43-5.24,1.28-1.15.63-2.05,1.57-2.84,2.67v-3.73h-3.94v30.95h4.1v-11.88c.78,1.03,1.67,1.93,2.76,2.54,1.55.87,3.27,1.31,5.15,1.31,2.22,0,4.19-.48,5.9-1.45,1.71-.97,3.07-2.32,4.06-4.06,1-1.74,1.49-3.76,1.49-6.07s-.5-4.32-1.49-6.05c-1-1.73-2.35-3.07-4.06-4.04ZM891.15,761.92c-.67,1.22-1.58,2.14-2.74,2.8s-2.46.98-3.91.98-2.72-.33-3.87-.98c-1.15-.66-2.07-1.59-2.74-2.8-.67-1.21-1-2.62-1-4.21s.33-3.03,1-4.21c.67-1.18,1.59-2.11,2.74-2.76,1.16-.65,2.44-.98,3.87-.98s2.76.33,3.91.98c1.16.66,2.07,1.58,2.74,2.76.67,1.18,1.01,2.58,1.01,4.21s-.34,3-1.01,4.21Z"/>
    <path class="cls-2" d="M910.03,746.16c-1.79,0-3.51.25-5.15.75-1.64.5-3.05,1.22-4.22,2.16l1.71,3.08c.88-.74,1.97-1.33,3.25-1.77,1.28-.44,2.6-.66,3.94-.66,2.02,0,3.54.48,4.55,1.43,1.02.96,1.52,2.3,1.52,4.04v.81h-6.5c-2.25,0-4.04.3-5.37.9-1.32.6-2.28,1.39-2.86,2.39-.58,1-.88,2.11-.88,3.33,0,1.29.34,2.43,1.02,3.45.68,1.01,1.66,1.8,2.93,2.37s2.74.86,4.43.86c2.08,0,3.81-.39,5.17-1.18,1-.57,1.71-1.35,2.26-2.23v3.14h3.89v-13.68c0-3.11-.84-5.42-2.52-6.93-1.68-1.51-4.08-2.27-7.19-2.27ZM913.13,765.11c-1.16.68-2.5,1.02-4.04,1.02s-2.8-.33-3.68-1c-.88-.67-1.33-1.56-1.33-2.67,0-.97.36-1.8,1.07-2.48.72-.68,2.1-1.02,4.15-1.02h6.33v3.16c-.51,1.31-1.35,2.31-2.5,2.99Z"/>
    <path class="cls-2" d="M931.29,750.36v-3.98h-3.94v22.66h4.1v-11.29c0-2.48.64-4.38,1.93-5.68s3.02-1.97,5.22-1.97h.44c.16,0,.33.01.49.04v-3.98c-2.16,0-3.99.42-5.47,1.24-1.25.7-2.14,1.73-2.78,2.96Z"/>
    <path class="cls-2" d="M951.3,746.16c-1.79,0-3.51.25-5.15.75-1.64.5-3.04,1.22-4.21,2.16l1.71,3.08c.88-.74,1.97-1.33,3.25-1.77,1.28-.44,2.59-.66,3.93-.66,2.03,0,3.54.48,4.56,1.43,1.01.96,1.51,2.3,1.51,4.04v.81h-6.49c-2.25,0-4.04.3-5.37.9-1.33.6-2.28,1.39-2.87,2.39-.58,1-.88,2.11-.88,3.33,0,1.29.35,2.43,1.03,3.45.68,1.01,1.66,1.8,2.93,2.37s2.74.86,4.42.86c2.09,0,3.81-.39,5.17-1.18,1-.58,1.71-1.35,2.27-2.23v3.15h3.89v-13.68c0-3.11-.84-5.42-2.52-6.93-1.69-1.51-4.08-2.27-7.19-2.27ZM954.4,765.11c-1.16.68-2.5,1.02-4.04,1.02s-2.79-.33-3.67-1c-.89-.67-1.33-1.56-1.33-2.67,0-.97.36-1.8,1.07-2.48s2.09-1.02,4.15-1.02h6.32v3.16c-.51,1.31-1.34,2.31-2.5,2.99Z"/>
    <path class="cls-2" d="M997.9,750c-.85-1.11-1.84-2.05-3.07-2.66-1.6-.78-3.37-1.18-5.31-1.18-2.19,0-4.15.46-5.88,1.37-1.73.92-3.09,2.19-4.1,3.83-1.02,1.64-1.52,3.55-1.52,5.75s.5,4.08,1.52,5.73c1.01,1.65,2.38,2.94,4.1,3.86,1.73.93,3.69,1.39,5.88,1.39,1.94,0,3.71-.41,5.31-1.22,1.14-.58,2.05-1.44,2.86-2.43v1.94c0,2.56-.62,4.48-1.88,5.73-1.26,1.26-3.22,1.88-5.9,1.88-1.68,0-3.29-.27-4.83-.79-1.54-.52-2.84-1.25-3.89-2.16l-1.97,3.16c1.23,1.08,2.82,1.92,4.77,2.5,1.95.58,3.97.88,6.06.88,3.84,0,6.77-.94,8.77-2.82,1.99-1.88,2.99-4.81,2.99-8.81v-19.58h-3.89v3.62ZM996.77,760.96c-.67,1.12-1.59,1.99-2.76,2.61-1.17.63-2.5.94-4.02.94s-2.86-.31-4.04-.94c-1.19-.62-2.11-1.49-2.78-2.61-.67-1.11-1-2.39-1-3.84s.33-2.74,1-3.85c.67-1.11,1.59-1.97,2.78-2.58,1.18-.62,2.53-.92,4.04-.92s2.85.31,4.02.92c1.17.61,2.09,1.47,2.76,2.58.67,1.12,1,2.4,1,3.85s-.33,2.74-1,3.84Z"/>
    <path class="cls-2" d="M1017.87,746.16c-1.79,0-3.51.25-5.15.75-1.64.5-3.05,1.22-4.22,2.16l1.71,3.08c.88-.74,1.97-1.33,3.25-1.77,1.28-.44,2.6-.66,3.94-.66,2.02,0,3.54.48,4.55,1.43,1.02.96,1.52,2.3,1.52,4.04v.81h-6.5c-2.25,0-4.04.3-5.37.9-1.32.6-2.28,1.39-2.86,2.39s-.88,2.11-.88,3.33c0,1.29.34,2.43,1.02,3.45.68,1.01,1.66,1.8,2.93,2.37s2.74.86,4.43.86c2.08,0,3.81-.39,5.17-1.18,1-.57,1.71-1.35,2.26-2.23v3.14h3.89v-13.68c0-3.11-.84-5.42-2.52-6.93-1.68-1.51-4.08-2.27-7.19-2.27ZM1020.97,765.11c-1.16.68-2.5,1.02-4.04,1.02s-2.8-.33-3.68-1c-.88-.67-1.33-1.56-1.33-2.67,0-.97.36-1.8,1.07-2.48.72-.68,2.1-1.02,4.15-1.02h6.33v3.16c-.51,1.31-1.35,2.31-2.5,2.99Z"/>
    <path class="cls-2" d="M1052.19,747.23c-1.41-.71-3.05-1.07-4.9-1.07-2.05,0-3.84.42-5.39,1.24-1.19.64-2.06,1.53-2.78,2.56v-3.59h-3.94v22.66h4.1v-11.67c0-1.65.29-3.03.88-4.14.58-1.12,1.42-1.95,2.5-2.52,1.08-.57,2.35-.86,3.81-.86,1.94,0,3.44.56,4.51,1.67,1.07,1.12,1.61,2.77,1.61,4.96v12.57h4.1v-13.04c0-2.22-.4-4.06-1.2-5.51-.8-1.45-1.91-2.54-3.31-3.25Z"/>
    <path class="cls-2" d="M1072.56,746.16c-1.79,0-3.51.25-5.15.75s-3.04,1.22-4.21,2.16l1.71,3.08c.88-.74,1.97-1.33,3.25-1.77,1.28-.44,2.59-.66,3.93-.66,2.03,0,3.54.48,4.56,1.43,1.01.96,1.51,2.3,1.51,4.04v.81h-6.49c-2.25,0-4.04.3-5.37.9-1.33.6-2.28,1.39-2.87,2.39-.58,1-.88,2.11-.88,3.33,0,1.29.35,2.43,1.03,3.45.68,1.01,1.66,1.8,2.93,2.37s2.74.86,4.42.86c2.09,0,3.81-.39,5.17-1.18,1-.58,1.71-1.35,2.27-2.23v3.15h3.89v-13.68c0-3.11-.84-5.42-2.52-6.93-1.69-1.51-4.08-2.27-7.19-2.27ZM1075.67,765.11c-1.16.68-2.5,1.02-4.04,1.02s-2.79-.33-3.67-1c-.89-.67-1.33-1.56-1.33-2.67,0-.97.36-1.8,1.07-2.48.71-.68,2.09-1.02,4.15-1.02h6.32v3.16c-.51,1.31-1.34,2.31-2.5,2.99Z"/>
    <path class="cls-2" d="M1107.16,749.96c-.78-1.02-1.65-1.91-2.74-2.52-1.54-.85-3.27-1.28-5.17-1.28-2.2,0-4.16.48-5.88,1.45-1.73.97-3.09,2.32-4.08,4.04-1,1.73-1.5,3.74-1.5,6.05s.5,4.33,1.5,6.07c1,1.74,2.36,3.09,4.08,4.06,1.72.97,3.68,1.45,5.88,1.45,1.97,0,3.72-.44,5.26-1.31,1.14-.64,2.04-1.59,2.82-2.69v3.74h3.93v-31.73h-4.1v12.65ZM1106.19,761.92c-.67,1.22-1.58,2.14-2.74,2.8s-2.44.98-3.87.98-2.75-.33-3.89-.98c-1.14-.66-2.05-1.59-2.74-2.8-.68-1.21-1.02-2.62-1.02-4.21s.34-3.03,1.02-4.21,1.6-2.11,2.74-2.76c1.14-.65,2.44-.98,3.89-.98s2.72.33,3.87.98c1.16.66,2.07,1.58,2.74,2.76.67,1.18,1.01,2.58,1.01,4.21s-.34,3-1.01,4.21Z"/>
    <path class="cls-2" d="M1134.14,747.62c-1.68-.97-3.62-1.45-5.81-1.45s-4.12.49-5.84,1.47c-1.73.99-3.08,2.35-4.06,4.08-.98,1.74-1.47,3.74-1.47,5.99s.5,4.25,1.51,5.98c1.02,1.74,2.44,3.11,4.28,4.11,1.84,1,3.97,1.49,6.39,1.49,1.88,0,3.59-.31,5.11-.94,1.53-.62,2.8-1.54,3.83-2.74l-2.27-2.65c-.82.91-1.79,1.59-2.88,2.05-1.1.46-2.32.68-3.66.68-1.63,0-3.06-.33-4.32-.98-1.26-.66-2.23-1.57-2.93-2.76-.51-.87-.77-1.85-.91-2.89h18.33c.03-.2.05-.41.06-.64.01-.23.03-.43.03-.6,0-2.34-.48-4.38-1.43-6.14-.96-1.75-2.28-3.11-3.96-4.08ZM1124.51,750.59c1.12-.64,2.38-.96,3.81-.96s2.73.32,3.83.96c1.1.64,1.96,1.53,2.58,2.67.47.86.7,1.83.8,2.87h-14.44c.12-1.03.35-2,.82-2.85.62-1.15,1.49-2.05,2.6-2.69Z"/>
    <path class="cls-2" d="M1149.15,750.36v-3.98h-3.94v22.66h4.1v-11.29c0-2.48.64-4.38,1.93-5.68,1.28-1.31,3.02-1.97,5.22-1.97h.44c.16,0,.33.01.49.04v-3.98c-2.16,0-3.99.42-5.47,1.24-1.25.7-2.14,1.73-2.78,2.96Z"/>
    <path class="cls-2" d="M1177.99,747.64c-1.79-.98-3.81-1.47-6.06-1.47s-4.3.49-6.07,1.47c-1.77.99-3.16,2.35-4.19,4.08-1.03,1.74-1.54,3.74-1.54,5.99s.51,4.21,1.54,5.96c1.03,1.75,2.42,3.13,4.19,4.13,1.77,1,3.79,1.49,6.07,1.49s4.27-.5,6.06-1.49c1.78-1,3.17-2.37,4.19-4.11,1.01-1.73,1.51-3.73,1.51-5.98s-.5-4.28-1.51-6.01c-1.02-1.73-2.41-3.07-4.19-4.06ZM1178.56,761.92c-.65,1.22-1.56,2.14-2.71,2.8-1.16.66-2.46.98-3.92.98s-2.75-.33-3.89-.98c-1.14-.66-2.05-1.59-2.74-2.8-.68-1.21-1.02-2.62-1.02-4.21s.34-3.03,1.02-4.21,1.6-2.11,2.74-2.76c1.14-.65,2.44-.98,3.89-.98s2.76.33,3.92.98c1.15.66,2.06,1.58,2.71,2.76.66,1.18.99,2.58.99,4.21s-.33,3-.99,4.21Z"/>
    <path class="cls-2" d="M1204.89,759.5c-.53-.77-1.22-1.37-2.05-1.79-.84-.43-1.77-.76-2.8-1-1.02-.25-2.05-.44-3.08-.6-1.02-.15-1.96-.35-2.8-.58-.84-.23-1.53-.54-2.05-.96-.53-.42-.8-1.01-.8-1.78,0-.91.44-1.66,1.33-2.24.88-.58,2.22-.88,4.02-.88,1.12,0,2.22.13,3.34.39,1.11.26,2.18.73,3.21,1.41l1.75-3.25c-.97-.65-2.22-1.16-3.75-1.51-1.53-.36-3.03-.54-4.51-.54-1.94,0-3.61.28-5.03.84-1.41.56-2.5,1.35-3.27,2.37-.77,1.03-1.16,2.22-1.16,3.59s.25,2.36.77,3.14c.51.79,1.2,1.4,2.05,1.84.86.44,1.79.78,2.82,1.03,1.02.24,2.05.44,3.07.6,1.03.16,1.96.33,2.8.53.84.21,1.52.5,2.03.9s.77.96.77,1.67c0,.97-.43,1.73-1.26,2.26-.84.54-2.22.81-4.12.81-1.49,0-2.94-.23-4.36-.68-1.43-.45-2.62-1.01-3.59-1.67l-1.71,3.25c.97.74,2.3,1.37,4,1.88,1.7.51,3.49.77,5.37.77,2.03,0,3.77-.28,5.22-.84,1.45-.55,2.58-1.33,3.38-2.33.8-1,1.2-2.18,1.2-3.55,0-1.28-.27-2.31-.79-3.08Z"/>
    <path class="cls-1" d="M752.88,614.74c9.13-1.34,17-6.85,21.63-15.05,4.63-8.2,5.29-17.78,1.8-26.25-.32-.73-1.01-1.12-1.8-1.02-9.13,1.34-17,6.85-21.63,15.05-4.63,8.2-5.29,17.78-1.8,26.25.32.73,1.01,1.12,1.8,1.02Z"/>
    <path class="cls-2" d="M531.79,752c-4.16,0-7.53,3.37-7.53,7.53s3.37,7.53,7.53,7.53,7.53-3.37,7.53-7.53-3.37-7.53-7.53-7.53Z"/>
    <path class="cls-2" d="M511.37,757.08c-2.76,0-4.99,2.23-4.99,4.99s2.23,4.99,4.99,4.99,4.99-2.23,4.99-4.99-2.23-4.99-4.99-4.99Z"/>
    <path class="cls-2" d="M494.11,757.08h-8.5c-2.65,0-4.8,2.15-4.8,4.8s2.15,4.8,4.8,4.8h8.5c2.65,0,4.8-2.15,4.8-4.8s-2.15-4.8-4.8-4.8Z"/>
    <path class="cls-1" d="M769.73,704.19c-.48.05-.95.15-1.44.15-7.81,0-14.14-6.33-14.14-14.14s6.33-14.14,14.14-14.14c.49,0,.96.1,1.44.15v-59.36c-11.88-.05-21.54,9.57-21.54,21.45v65.68c.31-.02.6-.09.91-.09,7.18,0,13.05,5.37,13.95,12.31l6.68.03v-12.02Z"/>
    <path class="cls-1" d="M749.08,724.3c3.62,0,6.56-2.94,6.56-6.56,0-.56-.19-1.06-.32-1.58-.72-2.84-3.18-4.98-6.24-4.98-.32,0-.59.14-.9.18-3.18.45-5.66,3.08-5.66,6.38,0,3.62,2.94,6.56,6.56,6.56Z"/>
    <path class="cls-1" d="M777.19,690.25c0-4.35-3.28-7.8-7.47-8.39-.39-.06-.74-.23-1.15-.23-4.76,0-8.62,3.86-8.62,8.62s3.86,8.62,8.62,8.62c.41,0,.76-.18,1.15-.23,4.19-.59,7.47-4.04,7.47-8.39Z"/>
    <circle class="cls-1" cx="776.55" cy="725.41" r="6.86"/>
    <path class="cls-1" d="M253.88,576.75c-1.57.02-3.13.17-4.69.23-3.74.14-7.33.96-10.76,2.44-4.49,1.93-8.67,4.4-12.59,7.32-4.96,3.7-9.32,8.04-13.33,12.72-1.34,1.56-2.64,3.15-3.86,4.81-2.2,1.69-4.88,2.86-7.64,2.72-2.42-.12-4.6-.64-6.96-1.2-20.86-4.97-38.11,13.29-43.79,18.78-2.99,2.89-5.92,6.8-6.17,8.51-.16,1.09-.36,3.25,3.01,5.45,3.53,2.31,6.53,2.7,14.52,4.27,7.99,1.58,20.2,2.73,27.76.49,6.96-2.06,14.84-8.18,17.75-13.4,2.1-3.77,2.5-6.36,3.4-10.53-.64,2.97.83,7.49,1.11,10.56.22,2.49.54,4.96,1.23,7.38,1.88,6.59,5.96,12.46,9.77,18.06,1.29,1.9,2.8,4.58,4.26,7.75,1.67,4.05,3.19,8.15,4.43,12.35,1.4,5.43,2.12,11.13,1.43,16.31-.25,1.45-.61,2.89-1.12,4.3-.4,1.1-.71,2.21-.93,3.36-.52,2.72-.55,5.47-.13,8.19.61,3.94,2.1,6.09,4.52,7.36,0,0,0,0,0,0,1.99,1.43,7.72,2.19,10.88,2.21,3.9.03,4.77.12,8.02.15.23.01.46.02.69,0,.68,0,1.45,0,2.36,0,.22,0,.43-.01.64-.04h16.35v-140.58h-20.17Z"/>
  </g>
  <g>
    <path class="cls-1" d="M392.81,575.4h20.02v140.81h-29.57l-63.77-87.1.4,38.02v49.08h-32.79v-140.81h29.57s63.77,87.5,63.77,87.5l-.4-37.62v-37.12c0-7.05,5.72-12.77,12.77-12.77Z"/>
    <path class="cls-1" d="M538.76,616.84v99.37h-27.36l-2.01-11.47c-3.76,4.43-8.35,7.81-13.78,10.16-5.43,2.34-11.37,3.52-17.8,3.52-12.2,0-21.93-4.02-29.17-12.07-7.24-8.05-10.86-19.18-10.86-33.39v-56.12h31.58v54.31c0,6.44,1.57,11.47,4.73,15.09,3.15,3.62,7.47,5.43,12.97,5.43,6.04,0,10.89-2.11,14.58-6.34,3.69-4.22,5.53-9.69,5.53-16.39v-52.1h31.58Z"/>
    <path class="cls-1" d="M633.7,712.39c-7.78,3.89-16.56,5.83-26.35,5.83-10.86,0-19.45-3.05-25.75-9.15-6.31-6.1-9.45-15.92-9.45-29.47v-37.62h-16.9v-25.14h16.9v-24.74l31.38-3.42v28.16h24.74v25.14h-24.74v37.62c0,4.02,1.01,7.01,3.02,8.95,2.01,1.95,4.76,2.92,8.25,2.92,3.89,0,7.71-.94,11.47-2.82l7.44,23.74Z"/>
    <path class="cls-1" d="M717.99,617.14c4.56,1.68,8.51,4.12,11.87,7.34l-13.28,23.13c-2.82-1.74-5.43-3.02-7.85-3.82-2.41-.8-4.96-1.21-7.64-1.21-6.71,0-12,2.15-15.89,6.44-3.89,4.29-5.83,10.6-5.83,18.91v48.28h-31.58v-99.37h27.56l2.41,12.47c6.44-9.79,15.29-14.68,26.55-14.68,4.56,0,9.12.84,13.68,2.51Z"/>
    <path class="cls-2" d="M946.71,625.69c7.24,7.38,10.86,17.5,10.86,30.38v60.15h-31.58v-56.12c0-5.9-1.38-10.49-4.12-13.78-2.75-3.28-6.61-4.93-11.57-4.93-5.5,0-9.86,1.88-13.08,5.63-3.22,3.76-4.83,8.72-4.83,14.89v54.31h-31.38v-56.12c0-5.9-1.34-10.49-4.02-13.78-2.68-3.28-6.51-4.93-11.47-4.93-5.5,0-9.89,1.88-13.18,5.63-3.29,3.76-4.93,8.72-4.93,14.89v54.31h-31.58v-99.37h27.36l1.81,11.06c3.49-4.29,7.68-7.58,12.57-9.86,4.89-2.28,10.16-3.42,15.79-3.42,6.44,0,12.2,1.38,17.3,4.12,5.09,2.75,9.12,6.54,12.07,11.37,8.05-10.32,19.44-15.49,34.2-15.49,12.6,0,22.53,3.69,29.77,11.06Z"/>
    <path class="cls-2" d="M1084.3,616.84v99.37h-27.36l-2.01-11.87c-8.45,9.25-19.45,13.88-32.99,13.88-9.25,0-17.47-2.18-24.64-6.54-7.18-4.36-12.77-10.46-16.8-18.31-4.02-7.85-6.03-16.8-6.03-26.85s2.01-19.01,6.03-26.86c4.02-7.84,9.62-13.95,16.8-18.31,7.17-4.36,15.39-6.54,24.64-6.54,6.7,0,12.87,1.18,18.51,3.52,5.63,2.35,10.46,5.73,14.48,10.16l2.01-11.67h27.36ZM1046.48,684.73c4.43-4.63,6.64-10.69,6.64-18.2s-2.21-13.58-6.64-18.21c-4.43-4.63-10.13-6.94-17.1-6.94s-12.64,2.35-17,7.04c-4.36,4.7-6.54,10.73-6.54,18.1s2.18,13.41,6.54,18.1c4.36,4.7,10.02,7.04,17,7.04s12.67-2.31,17.1-6.94Z"/>
    <path class="cls-2" d="M1172.6,665.72l33.39,50.49h-36.21l-8.65-14.28-9.86-16.7-9.86,16.7-9.05,14.28h-35.6l33.39-50.49-30.78-48.88h35.61l9.25,15.09,7.24,13.68,7.64-13.68,9.25-15.09h34.8l-30.58,48.88Z"/>
  </g>
</svg>